<mxfile host="app.diagrams.net" modified="2024-07-22T12:59:07.448Z" agent="Mozilla/5.0 (X11; Linux x86_64; rv:129.0) Gecko/20100101 Firefox/129.0" version="24.7.1" etag="eV5DvJq54jqGs68UB794" type="github">
  <diagram name="Page-1" id="sewAWrKLu9cleOaBNjAr">
    <mxGraphModel>
      <root>
        <mxCell id="0" />
        <mxCell id="1" parent="0" />
      </root>
    </mxGraphModel>
  </diagram>
</mxfile>
